<?xml version="1.0" encoding="UTF-8" standalone="no"?>
<svg width="477px" height="74px" viewBox="0 0 477 74" version="1.1" xmlns="http://www.w3.org/2000/svg" xmlns:xlink="http://www.w3.org/1999/xlink" xmlns:sketch="http://www.bohemiancoding.com/sketch/ns">
    <!-- Generator: Sketch 3.3.2 (12043) - http://www.bohemiancoding.com/sketch -->
    <title>Springer_Materials_logo</title>
    <desc>Created with Sketch.</desc>
    <defs></defs>
    <g id="Page-1" stroke="none" stroke-width="1" fill="none" fill-rule="evenodd" sketch:type="MSPage">
        <g id="Springer_Materials_logo" sketch:type="MSLayerGroup">
            <path d="M90.075,57.695 C86.252,57.695 83.233,56.796 80.318,55.489 C79.711,52.866 79.513,49.352 79.312,45.723 L81.623,45.322 C82.93,50.256 84.744,55.082 90.787,55.082 C95.007,55.082 97.521,52.462 97.521,48.543 C97.521,38.176 80.318,40.491 80.318,28.514 C80.318,23.091 84.744,18.156 92.595,18.156 C95.209,18.156 98.029,18.86 100.843,19.865 C101.043,21.976 101.251,24.394 101.347,28.62 L99.233,28.717 C98.23,25.198 96.619,20.875 91.484,20.875 C87.665,20.875 85.75,23.483 85.75,26.606 C85.75,36.164 103.26,34.15 103.26,46.632 C103.26,52.568 97.928,57.695 90.075,57.695" id="Fill-1" fill="#002344" sketch:type="MSShapeGroup"></path>
            <path d="M115.035,37.174 C116.338,36.37 118.454,35.26 120.063,35.26 C123.885,35.26 126.907,38.079 126.907,44.417 C126.907,51.961 123.082,54.181 120.164,54.181 C117.951,54.181 116.14,53.272 115.035,52.07 L115.035,37.174 L115.035,37.174 Z M118.758,57.303 C126.302,56.393 132.341,50.655 132.341,42.206 C132.341,36.973 128.817,31.541 122.583,31.541 C121.876,31.541 121.172,31.637 120.462,32.038 L115.035,34.857 L115.035,31.033 C112.111,32.038 109.299,32.942 106.276,33.551 L106.276,35.26 C109.699,35.566 109.801,35.662 109.801,39.185 L109.801,66.053 C109.801,69.476 109.497,69.772 105.874,70.181 L105.874,72.089 L120.063,72.089 L120.063,70.181 C115.438,69.772 115.035,69.476 115.035,66.053 L115.035,56.589 C115.839,56.896 117.146,57.198 118.758,57.303 L118.758,57.303 Z" id="Fill-2" fill="#002344" sketch:type="MSShapeGroup"></path>
            <path d="M151.457,37.772 C150.855,36.973 150.056,36.773 149.046,36.773 C147.738,36.773 146.126,38.285 145.02,41.401 L145.02,50.754 C145.02,54.181 145.424,54.478 149.75,54.786 L149.75,56.796 L136.065,56.796 L136.065,54.786 C139.48,54.478 139.885,54.181 139.885,50.754 L139.885,39.381 C139.885,35.967 139.587,35.967 136.465,35.365 L136.465,33.656 C139.48,33.049 142.401,32.444 145.02,31.44 L145.02,37.475 L145.115,37.475 C146.929,34.15 149.447,31.541 151.765,31.541 C153.775,31.541 155.18,33.049 155.18,34.657 C155.18,36.973 152.767,38.983 151.457,37.772" id="Fill-3" fill="#002344" sketch:type="MSShapeGroup"></path>
            <path d="M157.801,56.796 L157.801,54.786 C161.217,54.478 161.72,54.181 161.72,50.552 L161.72,39.691 C161.72,35.763 161.424,35.763 158.102,35.365 L158.102,33.656 C161.217,33.049 164.339,32.339 166.855,31.44 L166.855,50.552 C166.855,54.181 167.154,54.478 170.677,54.786 L170.677,56.796 L157.801,56.796" id="Fill-4" fill="#002344" sketch:type="MSShapeGroup"></path>
            <path d="M164.037,26.103 C162.12,26.103 160.614,24.596 160.614,22.69 C160.614,20.674 162.12,19.162 164.037,19.162 C166.05,19.162 167.56,20.674 167.56,22.69 C167.56,24.596 166.05,26.103 164.037,26.103" id="Fill-5" fill="#002344" sketch:type="MSShapeGroup"></path>
            <g id="Group-9" transform="translate(173.000000, 31.000000)" fill="#002344" sketch:type="MSShapeGroup">
                <path d="M16.593,25.796 L16.593,23.786 C19.416,23.478 19.818,23.181 19.818,19.954 L19.818,10.095 C19.818,6.475 18.208,4.26 15.189,4.26 C13.28,4.26 11.061,5.666 9.554,7.079 L9.554,19.954 C9.554,23.181 9.849,23.478 12.673,23.786 L12.673,25.796 L0.393,25.796 L0.393,23.786 C3.813,23.478 4.32,23.181 4.32,19.954 L4.32,8.381 C4.32,4.967 4.119,4.763 1.101,4.365 L1.101,2.656 C4.119,2.049 6.933,1.444 9.554,0.44 L9.554,4.461 C10.862,3.356 14.685,0.541 17.604,0.541 C22.132,0.541 24.95,3.657 24.95,8.291 L24.95,19.954 C24.95,23.181 25.455,23.478 28.47,23.786 L28.47,25.796 L16.593,25.796" id="Fill-6"></path>
                <path d="M44.066,39.878 C39.541,39.878 36.521,37.27 36.521,33.846 C36.521,31.43 38.436,28.209 42.758,28.209 C45.881,28.209 47.789,28.309 49.198,28.815 C50.707,29.415 51.917,31.127 51.917,33.237 C51.917,36.556 49.102,39.878 44.066,39.878 M42.758,2.952 C45.881,2.952 47.789,6.174 47.789,10.095 C47.789,14.723 45.673,16.638 43.465,16.638 C40.44,16.638 38.23,13.619 38.23,9.391 C38.23,5.164 40.648,2.952 42.758,2.952 M47.99,23.786 L41.958,23.786 C39.541,23.786 38.637,22.674 38.637,21.765 C38.637,20.865 39.644,19.458 40.847,19.055 C41.548,19.055 42.359,19.156 42.664,19.156 C47.689,19.156 53.228,15.839 53.228,9.692 C53.228,7.983 52.618,5.773 51.81,4.662 L54.732,4.967 C55.64,4.461 56.751,2.747 57.147,1.847 L56.751,1.243 C54.333,1.545 51.716,1.847 49.102,1.942 C47.388,1.038 45.375,0.541 43.264,0.541 C38.436,0.541 32.596,4.059 32.596,10.606 C32.596,14.226 35.112,17.443 37.833,18.352 C36.921,19.458 34.808,21.272 32.494,22.272 C32.298,25.494 35.315,27.203 37.023,27.811 C32.298,31.43 31.188,33.139 31.188,35.354 C31.188,38.772 34.808,43 41.651,43 C49.498,43 56.246,37.565 56.246,31.127 C56.246,25.494 51.516,23.786 47.99,23.786" id="Fill-8"></path>
            </g>
            <path d="M242.728,34.054 C245.443,34.054 247.355,36.666 247.355,39.381 C247.355,40.391 247.154,40.697 246.052,40.697 L237.395,40.894 C237.998,36.571 240.415,34.054 242.728,34.054 M245.14,53.067 C241.22,53.067 237.294,50.256 237.093,43.613 C243.433,43.412 250.376,42.909 251.285,42.809 C252.39,42.604 252.688,42.005 252.688,40.491 C252.688,35.763 248.766,31.541 243.833,31.541 C237.902,31.541 231.958,37.677 231.958,45.518 C231.958,51.961 236.084,57.398 243.23,57.398 C245.044,57.398 248.967,56.393 252.281,52.272 L250.979,50.458 C248.967,52.462 247.355,53.067 245.14,53.067" id="Fill-10" fill="#002344" sketch:type="MSShapeGroup"></path>
            <g id="Group-14" fill="#002344" sketch:type="MSShapeGroup">
                <path d="M271.708,37.772 C271.005,37.07 270.093,36.773 269.293,36.773 C267.983,36.773 266.279,38.285 265.168,41.401 L265.168,50.754 C265.168,54.181 265.573,54.478 269.897,54.786 L269.897,56.796 L256.108,56.796 L256.108,54.786 C259.63,54.478 259.936,54.181 259.936,50.754 L259.936,39.381 C259.936,35.967 259.734,35.967 256.518,35.365 L256.518,33.656 C259.734,33.049 262.548,32.444 265.168,31.44 L265.168,37.475 L265.266,37.475 C266.975,34.15 269.494,31.541 271.908,31.541 C273.822,31.541 275.325,33.049 275.325,34.657 C275.325,36.973 272.817,38.983 271.708,37.772" id="Fill-11"></path>
                <path d="M15.796,23.13 L15.495,19.405 L20.224,18.903 L20.329,20.718 L15.796,23.13 L15.796,23.13 Z M7.956,36.207 L5.836,35.407 C6.539,34.398 6.946,32.99 6.946,31.784 L8.755,31.881 C8.855,33.188 8.654,35.202 7.956,36.207 L7.956,36.207 Z M31.095,8.74 C31.196,9.746 31.196,10.556 31.196,11.355 C31.196,12.562 31.095,13.571 31.095,13.571 L28.175,13.069 C28.277,12.058 28.48,5.218 26.064,3.709 C26.064,3.709 26.064,7.329 25.255,10.948 L22.54,10.45 C22.54,7.933 21.434,6.926 19.927,6.228 L20.631,11.154 L18.917,13.666 L19.727,15.983 L14.39,17.793 L12.881,22.124 L3.521,35.002 L7.044,39.228 L10.971,35.912 L11.876,36.514 L11.876,41.444 L13.991,41.444 C14.892,37.921 17.811,33.795 20.53,31.784 L19.018,29.97 L21.229,28.066 L23.346,30.678 C23.346,30.678 30.898,30.678 30.898,30.578 C32,28.156 32.705,25.241 32.705,21.823 L35.624,21.823 C35.624,33.298 29.888,37.816 22.742,44.866 C20.123,47.475 17.811,50.295 17.51,54.12 L50.72,54.12 C56.555,30.066 49.715,10.948 31.095,8.74 L31.095,8.74 Z M10.466,56.94 L10.466,54.019 L14.495,54.019 C15.195,44.561 24.254,41.043 29.285,33.393 L23.448,33.393 C20.631,34.398 16.404,40.64 16.404,44.259 L9.058,44.259 L9.157,41.243 L6.744,43.249 L0.301,35.807 C0.301,35.807 0,35.407 0,35.103 C0,34.799 0.1,34.603 0.1,34.603 L10.266,20.819 L12.076,15.386 L14.791,14.381 L17.612,10.45 L16.606,3.601 C19.324,2.605 21.942,3.504 23.245,4.811 C23.346,2.806 23.143,0.585 23.143,0.585 C27.974,0.086 29.678,2.701 30.491,5.62 C31.801,5.721 33.007,5.917 34.112,6.122 C34.31,5.519 34.915,5.018 35.624,5.018 C36.528,5.018 37.139,5.721 37.139,6.525 L37.139,6.926 C39.251,7.635 41.257,8.635 43.068,9.746 C43.373,9.343 43.773,9.142 44.273,9.142 C45.182,9.142 45.788,9.848 45.788,10.65 C45.788,11.054 45.687,11.355 45.488,11.554 C47.196,12.963 48.605,14.677 49.914,16.491 C50.117,16.385 50.415,16.284 50.616,16.284 C51.522,16.284 52.223,16.989 52.223,17.793 C52.223,18.396 51.926,18.903 51.419,19.104 C52.426,20.918 53.233,22.935 53.838,25.041 C53.94,24.939 54.139,24.939 54.24,24.939 C55.144,24.939 55.748,25.644 55.748,26.446 C55.748,27.253 55.244,27.86 54.641,27.959 C55.043,30.066 55.344,32.187 55.546,34.398 C56.452,34.398 57.158,35.103 57.158,35.912 C57.158,36.821 56.452,37.413 55.646,37.52 C55.646,39.63 55.546,41.948 55.344,44.164 C56.149,44.259 56.758,44.962 56.758,45.768 C56.758,46.575 56.054,47.284 55.144,47.284 L55.043,47.284 C54.641,49.492 54.24,51.707 53.735,54.019 L57.959,54.019 L57.959,56.94 L10.466,56.94 L10.466,56.94 Z" id="Fill-13"></path>
            </g>
            <path d="M10.486,65.896 L57.881,65.896 L57.881,71.73 L10.486,71.73 L10.486,65.896 Z" id="Fill-15" fill="#E7772F" sketch:type="MSShapeGroup"></path>
            <path d="M319.856,39.845 C319.524,34.26 319.083,27.403 319.083,23.366 L318.972,23.366 C317.589,27.403 316.096,31.716 313.94,37.247 L306.087,57.541 L304.261,57.541 L296.907,37.744 C294.806,31.938 293.203,27.459 292.097,23.366 L291.985,23.366 C291.875,27.735 291.599,34.205 291.156,40.398 L289.995,57.541 L287.396,57.541 L290.104,20.269 L293.146,20.269 L301.166,41.726 C302.935,46.481 304.207,50.242 305.257,53.836 L305.423,53.836 C306.363,50.408 307.69,46.758 309.571,41.78 L317.92,20.269 L321.073,20.269 L323.561,57.541 L320.962,57.541 L319.856,39.845" id="Fill-16" fill="#002344" sketch:type="MSShapeGroup"></path>
            <path d="M345.625,43.33 C339.818,43.164 332.188,44.047 332.188,50.408 C332.188,54.223 334.731,55.937 337.497,55.937 C341.92,55.937 344.464,53.228 345.349,50.628 C345.57,50.076 345.625,49.467 345.625,49.025 L345.625,43.33 L345.625,43.33 Z M348.28,51.237 C348.28,53.339 348.334,55.495 348.667,57.541 L346.233,57.541 L345.846,53.725 L345.736,53.725 C344.409,55.771 341.478,58.149 337.22,58.149 C331.856,58.149 329.422,54.389 329.422,50.85 C329.422,44.711 334.787,41.006 345.625,41.117 L345.625,40.398 C345.625,37.799 345.128,32.546 338.823,32.601 C336.5,32.601 334.067,33.21 332.132,34.592 L331.303,32.656 C333.735,31.053 336.722,30.389 339.101,30.389 C346.786,30.389 348.28,36.141 348.28,40.841 L348.28,51.237 L348.28,51.237 Z" id="Fill-17" fill="#002344" sketch:type="MSShapeGroup"></path>
            <path d="M359.837,25.136 L359.837,30.998 L367.414,30.998 L367.414,33.154 L359.837,33.154 L359.837,50.408 C359.837,53.781 360.888,55.882 363.708,55.882 C365.09,55.882 366.085,55.716 366.749,55.495 L367.081,57.485 C366.197,57.873 364.98,58.149 363.377,58.149 C361.441,58.149 359.837,57.541 358.842,56.269 C357.625,54.887 357.183,52.619 357.183,49.91 L357.183,33.154 L352.703,33.154 L352.703,30.998 L357.183,30.998 L357.183,26.131 L359.837,25.136" id="Fill-18" fill="#002344" sketch:type="MSShapeGroup"></path>
            <path d="M390.141,41.892 C390.196,38.187 388.647,32.601 382.232,32.601 C376.371,32.601 373.827,37.799 373.33,41.892 L390.141,41.892 L390.141,41.892 Z M373.219,43.993 C373.219,52.453 377.809,55.827 383.339,55.827 C387.209,55.827 389.201,55.053 390.693,54.334 L391.357,56.38 C390.362,56.933 387.652,58.094 383.007,58.094 C375.376,58.094 370.62,52.564 370.62,44.768 C370.62,35.919 375.708,30.389 382.564,30.389 C391.247,30.389 392.906,38.574 392.906,42.389 C392.906,43.108 392.906,43.495 392.795,43.993 L373.219,43.993 L373.219,43.993 Z" id="Fill-19" fill="#002344" sketch:type="MSShapeGroup"></path>
            <path d="M399.486,38.96 C399.486,36.307 399.431,33.597 399.265,30.998 L401.698,30.998 L401.809,36.361 L401.974,36.361 C403.135,33.044 405.9,30.389 409.495,30.389 C409.882,30.389 410.27,30.445 410.602,30.5 L410.602,33.044 C410.214,32.933 409.827,32.933 409.33,32.933 C405.68,32.933 403.081,36.085 402.361,40.343 C402.195,41.117 402.14,42.002 402.14,42.886 L402.14,57.541 L399.486,57.541 L399.486,38.96" id="Fill-20" fill="#002344" sketch:type="MSShapeGroup"></path>
            <path d="M416.13,30.998 L418.784,30.998 L418.784,57.541 L416.13,57.541 L416.13,30.998 Z M419.559,23.421 C419.559,24.638 418.729,25.689 417.346,25.689 C416.13,25.689 415.301,24.638 415.301,23.421 C415.301,22.205 416.241,21.099 417.457,21.099 C418.674,21.099 419.559,22.149 419.559,23.421 L419.559,23.421 Z" id="Fill-21" fill="#002344" sketch:type="MSShapeGroup"></path>
            <path d="M441.457,43.33 C435.65,43.164 428.019,44.047 428.019,50.408 C428.019,54.223 430.563,55.937 433.328,55.937 C437.752,55.937 440.296,53.228 441.18,50.628 C441.402,50.076 441.457,49.467 441.457,49.025 L441.457,43.33 L441.457,43.33 Z M444.111,51.237 C444.111,53.339 444.167,55.495 444.498,57.541 L442.065,57.541 L441.679,53.725 L441.567,53.725 C440.24,55.771 437.309,58.149 433.052,58.149 C427.688,58.149 425.254,54.389 425.254,50.85 C425.254,44.711 430.618,41.006 441.457,41.117 L441.457,40.398 C441.457,37.799 440.959,32.546 434.655,32.601 C432.332,32.601 429.899,33.21 427.964,34.592 L427.134,32.656 C429.568,31.053 432.554,30.389 434.932,30.389 C442.618,30.389 444.111,36.141 444.111,40.841 L444.111,51.237 L444.111,51.237 Z" id="Fill-22" fill="#002344" sketch:type="MSShapeGroup"></path>
            <path d="M452.572,18.279 L455.227,18.279 L455.227,57.541 L452.572,57.541 L452.572,18.279 Z" id="Fill-23" fill="#002344" sketch:type="MSShapeGroup"></path>
            <path d="M461.696,54.058 C463.135,54.942 465.291,55.882 467.669,55.882 C471.871,55.882 473.862,53.615 473.862,50.85 C473.862,47.919 472.093,46.371 468.277,44.822 C463.909,43.164 461.53,40.786 461.53,37.578 C461.53,33.762 464.572,30.389 469.714,30.389 C472.147,30.389 474.249,31.108 475.576,32.048 L474.581,34.205 C473.641,33.541 471.927,32.601 469.272,32.601 C465.899,32.601 464.129,34.757 464.129,37.191 C464.129,39.956 466.01,41.172 469.604,42.666 C473.917,44.325 476.461,46.481 476.461,50.518 C476.461,55.053 472.922,58.094 467.503,58.094 C464.959,58.094 462.525,57.375 460.756,56.269 L461.696,54.058" id="Fill-24" fill="#002344" sketch:type="MSShapeGroup"></path>
        </g>
    </g>
</svg>