<?xml version="1.0" encoding="UTF-8"?>
<svg width="228px" height="50px" viewBox="0 0 228 50" version="1.1" xmlns="http://www.w3.org/2000/svg" xmlns:xlink="http://www.w3.org/1999/xlink">
    <title>Logo</title>
    <defs>
        <linearGradient x1="-1.28769746%" y1="50.5398712%" x2="99.8879847%" y2="47.7586843%" id="linearGradient-1">
            <stop stop-color="#023B7E" offset="0%"></stop>
            <stop stop-color="#004899" offset="20%"></stop>
            <stop stop-color="#7687C3" offset="49%"></stop>
            <stop stop-color="#6479B7" offset="49.57%"></stop>
            <stop stop-color="#4862A3" offset="50.75%"></stop>
            <stop stop-color="#335295" offset="52.11%"></stop>
            <stop stop-color="#22478A" offset="53.69%"></stop>
            <stop stop-color="#134083" offset="55.64%"></stop>
            <stop stop-color="#063C7F" offset="58.38%"></stop>
            <stop stop-color="#023B7E" offset="66%"></stop>
            <stop stop-color="#22478A" offset="70.64%"></stop>
            <stop stop-color="#566DAD" offset="80.12%"></stop>
            <stop stop-color="#7687C3" offset="85%"></stop>
            <stop stop-color="#023B7E" offset="100%"></stop>
        </linearGradient>
        <linearGradient x1="-1.26382571%" y1="50.6322777%" x2="99.8630596%" y2="47.9252741%" id="linearGradient-2">
            <stop stop-color="#023B7E" offset="0%"></stop>
            <stop stop-color="#004899" offset="20%"></stop>
            <stop stop-color="#7687C3" offset="49%"></stop>
            <stop stop-color="#6479B7" offset="49.57%"></stop>
            <stop stop-color="#4862A3" offset="50.75%"></stop>
            <stop stop-color="#335295" offset="52.11%"></stop>
            <stop stop-color="#22478A" offset="53.69%"></stop>
            <stop stop-color="#134083" offset="55.64%"></stop>
            <stop stop-color="#063C7F" offset="58.38%"></stop>
            <stop stop-color="#023B7E" offset="66%"></stop>
            <stop stop-color="#22478A" offset="70.64%"></stop>
            <stop stop-color="#566DAD" offset="80.12%"></stop>
            <stop stop-color="#7687C3" offset="85%"></stop>
            <stop stop-color="#023B7E" offset="100%"></stop>
        </linearGradient>
    </defs>
    <g id="Symbols" stroke="none" stroke-width="1" fill="none" fill-rule="evenodd">
        <g id="Global/Header-Menu-Open" transform="translate(-24.000000, -73.000000)" fill-rule="nonzero">
            <g id="Main_Navigation" transform="translate(24.000000, 46.000000)">
                <g id="Logo" transform="translate(0.000000, 27.000000)">
                    <g id="Group" transform="translate(54.226475, 3.189793)" fill="#004899">
                        <path d="M14.4497608,9.13875598 C13.9154705,8.50877193 13.1818182,8.01435407 12.2807018,7.67145136 C11.3795853,7.32854864 10.2631579,7.16108453 8.94736842,7.16108453 C7.59968102,7.16108453 6.33971292,7.5199362 5.20733652,8.21371611 C4.17065391,8.85964912 3.41307815,9.70494418 2.96650718,10.6937799 L2.96650718,0.494417863 L0.462519936,0.494417863 L0.462519936,26.7065391 L2.96650718,26.7065391 L2.96650718,15.645933 C2.99043062,14.7288676 3.14194577,13.8755981 3.41307815,13.1100478 C3.68421053,12.3444976 4.06698565,11.6666667 4.56140351,11.1004785 C5.04784689,10.5502392 5.64593301,10.1036683 6.3476874,9.77671451 C7.0414673,9.45773525 7.85486443,9.29824561 8.75598086,9.29824561 C9.65709729,9.29824561 10.4226475,9.44178628 11.0207337,9.72089314 C11.6188198,10.0079745 12.1052632,10.3987241 12.4561404,10.8931419 C12.814992,11.3875598 13.062201,11.9856459 13.2057416,12.6555024 C13.3492823,13.3253589 13.4210526,14.0749601 13.4210526,14.8724083 L13.4210526,26.7065391 L15.9250399,26.7065391 L15.9250399,14.5135566 C15.9250399,13.3891547 15.8133971,12.3684211 15.5901116,11.4673046 C15.3827751,10.5502392 14.9920255,9.76874003 14.4497608,9.13875598 Z" id="Path"></path>
                        <path d="M34.76874,10.1435407 C34.0111643,9.24242424 33.0701754,8.50877193 31.9457735,7.96650718 C30.8373206,7.43221691 29.5374801,7.15311005 28.0940989,7.15311005 C26.6507177,7.15311005 25.3508772,7.42424242 24.2424242,7.96650718 C23.1259968,8.50877193 22.1770335,9.24242424 21.4194577,10.1435407 C20.661882,11.0446571 20.0797448,12.1212121 19.6889952,13.3253589 C19.2982456,14.5295056 19.0988836,15.8293461 19.0988836,17.2009569 C19.0988836,18.5645933 19.2982456,19.8724083 19.6889952,21.076555 C20.0797448,22.2886762 20.661882,23.3572568 21.4194577,24.2583732 C22.1770335,25.1594896 23.1259968,25.8931419 24.2424242,26.4194577 C25.3588517,26.9457735 26.6586922,27.2089314 28.0940989,27.2089314 C29.5295056,27.2089314 30.8293461,26.9457735 31.9457735,26.4194577 C33.062201,25.8931419 34.0111643,25.1674641 34.76874,24.2583732 C35.5183413,23.3652313 36.108453,22.2886762 36.4992026,21.076555 C36.8899522,19.8644338 37.0893142,18.5645933 37.0893142,17.2009569 C37.0893142,15.8373206 36.8899522,14.5374801 36.4992026,13.3253589 C36.1004785,12.1132376 35.5183413,11.0366826 34.76874,10.1435407 Z M28.1020734,25.1036683 C27.0334928,25.1036683 26.076555,24.8724083 25.2791069,24.4258373 C24.4736842,23.9792663 23.7958533,23.3732057 23.2535885,22.6395534 C22.7192982,21.9059011 22.3125997,21.0606061 22.0334928,20.1036683 C21.754386,19.1626794 21.6188198,18.1897927 21.6188198,17.2009569 C21.6188198,16.2200957 21.7623604,15.2392344 22.0334928,14.2982456 C22.3125997,13.3413078 22.7272727,12.4960128 23.2535885,11.7623604 C23.7878788,11.0287081 24.4657097,10.4226475 25.2791069,9.96810207 C26.0845295,9.5215311 27.0334928,9.29027113 28.1020734,9.29027113 C29.1706539,9.29027113 30.1196172,9.5215311 30.9250399,9.96810207 C31.738437,10.4226475 32.4162679,11.0287081 32.9505582,11.7623604 C33.492823,12.4960128 33.8995215,13.3492823 34.1786284,14.2982456 C34.4497608,15.2472089 34.5933014,16.2200957 34.5933014,17.2009569 C34.5933014,18.1818182 34.4577352,19.1547049 34.1786284,20.1036683 C33.8995215,21.0446571 33.492823,21.8979266 32.9505582,22.6395534 C32.4162679,23.3811802 31.738437,23.9792663 30.9250399,24.4258373 C30.1196172,24.8724083 29.1706539,25.1036683 28.1020734,25.1036683 Z" id="Shape"></path>
                        <rect id="Rectangle" x="40.3349282" y="0.486443381" width="2.50398724" height="26.2121212"></rect>
                        <path d="M52.3444976,2.05741627 L49.8405104,2.05741627 L49.8405104,7.70334928 L46.5629984,7.70334928 L46.5629984,9.84051037 L49.8405104,9.84051037 L49.8405104,22.5917065 C49.8165869,24.2185008 50.1196172,25.3508772 50.7496013,25.9649123 C51.3716108,26.5789474 52.4720893,26.8899522 54.0271132,26.8899522 C54.3700159,26.8899522 54.7129187,26.8740032 55.0558214,26.8580542 C55.3907496,26.8341308 55.7256778,26.8261563 56.0685805,26.8261563 L56.1722488,26.8261563 L56.1722488,24.6730463 L56.0526316,24.6889952 C55.4066986,24.7607656 54.7527911,24.800638 54.1068581,24.800638 C53.3253589,24.7527911 52.8389155,24.5374801 52.6475279,24.1467305 C52.4481659,23.7400319 52.3444976,23.1658692 52.3444976,22.4322169 L52.3444976,9.86443381 L56.1722488,9.86443381 L56.1722488,7.72727273 L52.3444976,7.72727273 L52.3444976,2.05741627 L52.3444976,2.05741627 Z" id="Path"></path>
                        <polygon id="Path" points="73.7559809 9.44178628 73.7559809 7.6953748 59.1945774 7.6953748 59.1945774 9.83253589 70.5183413 9.83253589 58.3652313 24.7368421 58.3652313 26.6985646 74.2663477 26.6985646 74.2663477 24.5614035 61.4593301 24.5614035"></polygon>
                        <path d="M92.3046252,10.1594896 C91.6028708,9.25039872 90.7097289,8.50877193 89.6331738,7.9585327 C88.0781499,7.16905901 86.0127592,6.86602871 83.7878788,7.40031898 C83.0940989,7.57575758 82.4481659,7.84688995 81.8660287,8.19776715 C81.2679426,8.55661882 80.7416268,8.99521531 80.2950558,9.50558214 C79.9043062,9.95215311 79.585327,10.4625199 79.3700159,10.9808612 L79.3700159,0.4784689 L76.8660287,0.4784689 L76.8660287,26.6905901 L79.1866029,26.6905901 L79.1866029,23.3572568 C79.7368421,24.5374801 80.5821372,25.4704944 81.7065391,26.1244019 C82.9186603,26.8341308 84.3141946,27.1929825 85.8532695,27.1929825 C87.2966507,27.1929825 88.5645933,26.9298246 89.6331738,26.4035088 C90.7017544,25.8692185 91.6028708,25.1355662 92.3046252,24.2185008 C93.0143541,23.3094099 93.5486443,22.2248804 93.891547,21.0207337 C94.2344498,19.8086124 94.4019139,18.5167464 94.4019139,17.185008 C94.4019139,15.8532695 94.2264753,14.5614035 93.891547,13.3492823 C93.5486443,12.15311 93.0143541,11.076555 92.3046252,10.1594896 Z M85.8452951,25.1036683 C84.6570973,25.1036683 83.6363636,24.8724083 82.8229665,24.4098884 C82.0015949,23.9473684 81.3317384,23.3333333 80.8213716,22.599681 C80.3110048,21.8660287 79.9362041,21.0127592 79.7049442,20.0637959 C79.4816587,19.1148325 79.3620415,18.1499203 79.3620415,17.1929825 C79.3620415,16.2360447 79.4736842,15.2711324 79.7049442,14.3221691 C79.9362041,13.3732057 80.3110048,12.5199362 80.8213716,11.7862839 C81.3317384,11.0526316 82.0095694,10.4385965 82.8229665,9.97607656 C83.6363636,9.51355662 84.6570973,9.28229665 85.8452951,9.28229665 C86.9138756,9.28229665 87.8389155,9.51355662 88.5964912,9.97607656 C89.354067,10.4385965 89.984051,11.0446571 90.4784689,11.7862839 C90.9649123,12.5199362 91.323764,13.3732057 91.5550239,14.3221691 C91.7862839,15.2711324 91.8979266,16.2360447 91.8979266,17.1929825 C91.8979266,18.1419458 91.7862839,19.1148325 91.5550239,20.0637959 C91.323764,21.0127592 90.9569378,21.8660287 90.4784689,22.599681 C89.9920255,23.3333333 89.3620415,23.9393939 88.5964912,24.4019139 C87.8389155,24.8724083 86.9138756,25.1036683 85.8452951,25.1036683 Z" id="Shape"></path>
                        <path d="M102.703349,8.58851675 C101.539075,9.37001595 100.653907,10.4864434 100.079745,11.8421053 L100.079745,7.6953748 L97.7591707,7.6953748 L97.7591707,26.6985646 L100.263158,26.6985646 L100.263158,16.5789474 C100.263158,15.6060606 100.430622,14.6969697 100.76555,13.8755981 C101.100478,13.0542265 101.570973,12.3365231 102.177033,11.7464115 C102.791069,11.1483254 103.524721,10.6858054 104.346093,10.3668262 C105.175439,10.0478469 106.124402,9.9122807 107.145136,9.95215311 L107.256778,9.96012759 L107.256778,7.45614035 L107.15311,7.44816587 C105.438596,7.37639553 103.939394,7.75917065 102.703349,8.58851675 Z" id="Path"></path>
                        <rect id="Rectangle" x="109.992026" y="7.6953748" width="2.50398724" height="19.0031898"></rect>
                        <path d="M131.371611,9.13875598 C130.829346,8.50877193 130.095694,8.01435407 129.202552,7.67145136 C128.30941,7.32854864 127.185008,7.16108453 125.869219,7.16108453 C124.513557,7.16108453 123.253589,7.5199362 122.137161,8.21371611 C121.092504,8.85964912 120.334928,9.70494418 119.888357,10.6937799 L119.888357,7.70334928 L117.38437,7.70334928 L117.38437,26.7065391 L119.888357,26.7065391 L119.888357,15.645933 C119.912281,14.7448166 120.063796,13.891547 120.334928,13.1100478 C120.606061,12.3365231 120.99681,11.6666667 121.483254,11.108453 C121.969697,10.5502392 122.567783,10.1116427 123.269537,9.784689 C123.963317,9.46570973 124.776715,9.3062201 125.685805,9.3062201 C126.586922,9.3062201 127.352472,9.44976077 127.950558,9.72886762 C128.548644,10.015949 129.035088,10.4066986 129.385965,10.9011164 C129.736842,11.3955343 129.992026,11.9936204 130.135566,12.6634769 C130.279107,13.3572568 130.350877,14.1068581 130.350877,14.8803828 L130.350877,26.7145136 L132.854864,26.7145136 L132.854864,14.5215311 C132.854864,13.4051037 132.743222,12.38437 132.527911,11.4752791 C132.296651,10.5422648 131.913876,9.76076555 131.371611,9.13875598 Z" id="Path"></path>
                        <path d="M150.374801,19.8484848 C150.30303,20.6140351 150.111643,21.323764 149.800638,21.9617225 C149.497608,22.599681 149.098884,23.1578947 148.620415,23.6204147 C148.141946,24.0829346 147.591707,24.4497608 146.977671,24.7129187 C146.355662,24.9681021 145.701754,25.1036683 145.015949,25.1036683 C143.947368,25.1036683 142.990431,24.8724083 142.192982,24.4258373 C141.38756,23.9792663 140.709729,23.3732057 140.167464,22.6395534 C139.633174,21.8979266 139.218501,21.0446571 138.939394,20.1036683 C138.660287,19.138756 138.524721,18.1658692 138.524721,17.2009569 C138.524721,16.2360447 138.668262,15.2631579 138.939394,14.2982456 C139.210526,13.3572568 139.625199,12.5039872 140.167464,11.7623604 C140.701754,11.0287081 141.379585,10.4226475 142.192982,9.96810207 C142.998405,9.5215311 143.947368,9.29027113 145.015949,9.29027113 C146.515152,9.29027113 147.6874,9.68102073 148.508772,10.4625199 C149.338118,11.2440191 149.912281,12.3365231 150.223285,13.7240829 L150.239234,13.8038278 L152.735247,13.8038278 L152.719298,13.6842105 C152.448166,11.507177 151.594896,9.84848485 150.183413,8.77192982 C148.77193,7.6953748 147.025518,7.15311005 145,7.15311005 C143.556619,7.15311005 142.264753,7.42424242 141.148325,7.96650718 C140.031898,8.50877193 139.082935,9.24242424 138.325359,10.1435407 C137.567783,11.0526316 136.985646,12.1212121 136.594896,13.3253589 C136.204147,14.5215311 136.004785,15.8213716 136.004785,17.2009569 C136.004785,18.5725678 136.204147,19.8803828 136.594896,21.076555 C136.985646,22.2807018 137.567783,23.3572568 138.325359,24.2583732 C139.082935,25.1594896 140.031898,25.8931419 141.148325,26.4194577 C142.264753,26.9457735 143.556619,27.2089314 145,27.2089314 C147.15311,27.2089314 148.939394,26.5550239 150.311005,25.2711324 C151.682616,23.9872408 152.535885,22.169059 152.854864,19.8724083 L152.870813,19.7527911 L150.358852,19.7527911 L150.374801,19.8484848 Z" id="Path"></path>
                        <polygon id="Path" points="163.875598 14.7767145 172.025518 7.6953748 168.620415 7.72727273 158.38118 16.6746411 158.38118 0.486443381 155.869219 0.486443381 155.869219 26.6985646 158.38118 26.6985646 158.341308 19.5374801 161.969697 16.5151515 169.417863 26.6985646 172.496013 26.6985646"></polygon>
                        <path d="M111.244019,0.342902711 C110.374801,0.342902711 109.665072,1.05263158 109.665072,1.92185008 C109.665072,2.79106858 110.374801,3.49282297 111.244019,3.49282297 C112.113238,3.49282297 112.822967,2.7830941 112.822967,1.92185008 C112.822967,1.05263158 112.113238,0.342902711 111.244019,0.342902711 Z" id="Path"></path>
                    </g>
                    <g id="Group" transform="translate(54.226475, 36.682616)" fill="#4A4A49">
                        <path d="M4.06698565,0.558213716 L0.494417863,0.558213716 L0.494417863,10.0398724 L1.75438596,10.0398724 L1.75438596,6.77033493 L3.89952153,6.77033493 C5.76555024,6.77033493 7.64752791,5.79744817 7.64752791,3.62041467 C7.64752791,1.76236045 6.24401914,0.558213716 4.06698565,0.558213716 Z M3.93939394,5.60606061 L1.75438596,5.60606061 L1.75438596,1.738437 L3.98724083,1.738437 C5.50239234,1.738437 6.37161085,2.44019139 6.37161085,3.66028708 C6.37161085,4.84051037 5.41467305,5.60606061 3.93939394,5.60606061 Z" id="Shape"></path>
                        <path d="M13.8357257,7.00956938 C13.8357257,8.21371611 13.0382775,9.05103668 11.8899522,9.05103668 C10.7735247,9.05103668 10.1036683,8.31738437 10.1036683,7.08931419 L10.1036683,2.98245614 L8.87559809,2.98245614 L8.87559809,7.33652313 C8.87559809,9.06698565 9.94417863,10.1834131 11.6028708,10.1834131 C12.5438596,10.1834131 13.277512,9.81658692 13.8437002,9.08293461 L13.8437002,10.0398724 L15.0637959,10.0398724 L15.0637959,2.98245614 L13.8437002,2.98245614 L13.8437002,7.00956938 L13.8357257,7.00956938 Z" id="Path"></path>
                        <path d="M21.1403509,2.83891547 C20.1275917,2.83891547 19.3062201,3.26953748 18.6204147,4.14673046 L18.6204147,0.167464115 L17.3923445,0.167464115 L17.3923445,10.0478469 L18.6204147,10.0478469 L18.6204147,8.94736842 C19.2822967,9.77671451 20.1275917,10.1913876 21.1403509,10.1913876 C22.7751196,10.1913876 24.5215311,8.89952153 24.5215311,6.50717703 C24.5215311,4.12280702 22.7830941,2.83891547 21.1403509,2.83891547 Z M20.9569378,3.96331738 C22.2886762,3.96331738 23.261563,5.03987241 23.261563,6.523126 C23.261563,8.02232855 22.3125997,9.06698565 20.9569378,9.06698565 C19.7926635,9.06698565 18.5885167,8.11004785 18.5885167,6.50717703 C18.5885167,4.9122807 19.7926635,3.96331738 20.9569378,3.96331738 Z" id="Shape"></path>
                        <rect id="Rectangle" x="26.2838915" y="0.167464115" width="1.22807018" height="9.88038278"></rect>
                        <rect id="Rectangle" x="29.9681021" y="0.358851675" width="1.37958533" height="1.33971292"></rect>
                        <rect id="Rectangle" x="30.0318979" y="2.98245614" width="1.22807018" height="7.05741627"></rect>
                        <path d="M36.291866,5.91706539 C35.446571,5.66188198 34.6411483,5.41467305 34.6411483,4.8245614 C34.6411483,4.29027113 35.1275917,3.93939394 35.861244,3.93939394 C36.4832536,3.93939394 37.185008,4.17065391 37.830941,4.58532695 L37.9266348,4.64912281 L38.5007974,3.70015949 L38.4130781,3.64433812 C37.6794258,3.15789474 36.738437,2.8708134 35.8931419,2.8708134 C34.4577352,2.8708134 33.4529506,3.71610845 33.4529506,4.96012759 C33.4529506,6.33173844 34.8086124,6.71451356 35.7974482,6.99362041 C36.722488,7.24880383 37.4322169,7.49601276 37.4322169,8.12599681 C37.4322169,8.71610845 36.9059011,9.10685805 36.1244019,9.10685805 C35.3588517,9.10685805 34.5614035,8.81180223 33.8197767,8.25358852 L33.7320574,8.18979266 L33.0940989,9.08293461 L33.1738437,9.14673046 C33.9633174,9.784689 35.0717703,10.1754386 36.076555,10.1754386 C37.599681,10.1754386 38.6204147,9.3062201 38.6204147,7.99043062 C38.6044657,6.6108453 37.2328549,6.20414673 36.291866,5.91706539 Z" id="Path"></path>
                        <path d="M43.7559809,2.83891547 C42.814992,2.83891547 42.0653907,3.20574163 41.5151515,3.93939394 L41.5151515,0.167464115 L40.2870813,0.167464115 L40.2870813,10.0478469 L41.5151515,10.0478469 L41.5151515,6.02073365 C41.5151515,4.81658692 42.3125997,3.97926635 43.460925,3.97926635 C44.5773525,3.97926635 45.2472089,4.71291866 45.2472089,5.94098884 L45.2472089,10.0478469 L46.4753234,10.0478469 L46.4753234,5.6937799 C46.4832536,3.9553429 45.414673,2.83891547 43.7559809,2.83891547 Z" id="Path"></path>
                        <rect id="Rectangle" x="48.476874" y="0.358851675" width="1.37958533" height="1.33971292"></rect>
                        <rect id="Rectangle" x="48.5406699" y="2.98245614" width="1.22807018" height="7.05741627"></rect>
                        <path d="M55.6698565,2.83891547 C54.7288676,2.83891547 53.9792663,3.20574163 53.4290271,3.93939394 L53.4290271,2.98245614 L52.2009569,2.98245614 L52.2009569,10.0398724 L53.4290271,10.0398724 L53.4290271,6.01275917 C53.4290271,4.80861244 54.2264753,3.97129187 55.3748006,3.97129187 C56.4912281,3.97129187 57.1610845,4.70494418 57.1610845,5.93301435 L57.1610845,10.0398724 L58.3891987,10.0398724 L58.3891987,5.68580542 C58.3971292,3.9553429 57.3205742,2.83891547 55.6698565,2.83891547 Z" id="Path"></path>
                        <path d="M66.1164274,4.02711324 C65.4385965,3.23763955 64.569378,2.83891547 63.5486443,2.83891547 C61.9138756,2.83891547 60.2232855,4.09090909 60.2232855,6.19617225 C60.2232855,8.35725678 61.937799,9.5215311 63.5486443,9.5215311 C64.569378,9.5215311 65.4226475,9.11483254 66.1323764,8.26953748 L66.1323764,8.77192982 C66.1323764,10.2551834 65.2631579,11.1004785 63.7480064,11.1004785 C62.814992,11.1004785 61.953748,10.8133971 61.1722488,10.2472089 L61.076555,10.1754386 L60.5023923,11.1562998 L60.5821372,11.2121212 C61.507177,11.8580542 62.5757576,12.185008 63.7559809,12.185008 C66.0366826,12.185008 67.3444976,10.9330144 67.3444976,8.7400319 L67.3444976,2.98245614 L66.1164274,2.98245614 L66.1164274,4.02711324 L66.1164274,4.02711324 Z M63.7480064,8.40510367 C62.4561404,8.40510367 61.4832536,7.44019139 61.4832536,6.16427432 C61.4832536,4.86443381 62.4162679,3.9553429 63.7480064,3.9553429 C64.9362041,3.9553429 66.1562998,4.784689 66.1562998,6.18022329 C66.1562998,7.56778309 64.9362041,8.40510367 63.7480064,8.40510367 Z" id="Shape"></path>
                        <path d="M78.030303,6.02870813 L80.8532695,6.02870813 L80.8931419,8.14992026 C80.199362,8.71610845 79.2264753,9.05103668 78.2854864,9.05103668 C76.1562998,9.05103668 74.7208931,7.54385965 74.7208931,5.28708134 C74.7208931,3.20574163 76.2200957,1.57894737 78.1419458,1.57894737 C79.5215311,1.57894737 80.2791069,2.07336523 80.8931419,2.6076555 L80.9728868,2.67942584 L81.7862839,1.72248804 L81.7065391,1.6507177 C80.645933,0.757575758 79.6251994,0.390749601 78.1818182,0.390749601 C75.5183413,0.390749601 73.4290271,2.55183413 73.4290271,5.3030303 C73.4290271,8.18181818 75.414673,10.1913876 78.245614,10.1913876 C80.1355662,10.1913876 81.4354067,9.29027113 82.0733652,8.66826156 L82.0733652,4.86443381 L78.0382775,4.86443381 L78.0382775,6.02870813 L78.030303,6.02870813 Z" id="Path"></path>
                        <path d="M85.5422648,4.44178628 L85.5422648,2.99043062 L84.3141946,2.99043062 L84.3141946,10.0478469 L85.5422648,10.0478469 L85.5422648,7.2169059 C85.5422648,5.37480064 86.5709729,4.18660287 88.2296651,4.18660287 L88.3333333,4.18660287 L88.3333333,2.87878788 L88.1100478,2.8708134 C87.0494418,2.86283892 86.1164274,3.44497608 85.5422648,4.44178628 Z" id="Path"></path>
                        <path d="M92.6395534,2.83891547 C90.5741627,2.83891547 88.9553429,4.46570973 88.9553429,6.53907496 C88.9553429,8.59649123 90.5582137,10.2073365 92.6076555,10.2073365 C94.6810207,10.2073365 96.29987,8.58054226 96.29987,6.51515152 C96.307815,4.44976077 94.6969697,2.83891547 92.6395534,2.83891547 Z M92.6395534,9.08293461 C91.2759171,9.08293461 90.215311,7.95055821 90.215311,6.51515152 C90.215311,5.03189793 91.2200957,3.96331738 92.61563,3.96331738 C93.9792663,3.96331738 95.0558214,5.09569378 95.0558214,6.54704944 C95.0558214,7.99043062 94.0191388,9.08293461 92.6395534,9.08293461 Z" id="Shape"></path>
                        <path d="M102.807018,7.00956938 C102.807018,8.21371611 102.001595,9.05103668 100.85327,9.05103668 C99.7368421,9.05103668 99.0669856,8.31738437 99.0669856,7.08931419 L99.0669856,2.98245614 L97.8389155,2.98245614 L97.8389155,7.33652313 C97.8389155,9.06698565 98.907496,10.1834131 100.566188,10.1834131 C101.507177,10.1834131 102.240829,9.81658692 102.807018,9.08293461 L102.807018,10.0398724 L104.019139,10.0398724 L104.019139,2.98245614 L102.807018,2.98245614 L102.807018,7.00956938 Z" id="Path"></path>
                        <path d="M109.848485,2.83891547 C108.835726,2.83891547 108.014354,3.26953748 107.328549,4.14673046 L107.328549,2.99043062 L106.100478,2.99043062 L106.100478,12.169059 L107.328549,12.169059 L107.328549,8.94736842 C107.990431,9.77671451 108.835726,10.1913876 109.848485,10.1913876 C111.483254,10.1913876 113.229665,8.89952153 113.229665,6.50717703 C113.221691,4.12280702 111.483254,2.83891547 109.848485,2.83891547 Z M109.665072,3.96331738 C111.004785,3.96331738 111.969697,5.03987241 111.969697,6.523126 C111.969697,8.02232855 111.020734,9.06698565 109.665072,9.06698565 C108.500797,9.06698565 107.296611,8.11004785 107.296611,6.50717703 C107.288676,4.9122807 108.492823,3.96331738 109.665072,3.96331738 Z" id="Shape"></path>
                    </g>
                    <rect id="Rectangle" fill="#878787" x="43.6124402" y="0.151515152" width="1.22807018" height="46.8102073"></rect>
                    <g id="Group" transform="translate(0.000000, 3.189793)">
                        <path d="M33.9872408,20.8452951 C33.9872408,12.4561404 27.9824561,11.6347687 23.4210526,15.3668262 C20.5263158,17.7432217 16.8022329,22.0494418 16.8022329,17.9505582 C16.8022329,8.23763955 7.08931419,12.5358852 0.669856459,20.861244 L0.677830941,29.8564593 C7.09728868,21.539075 16.8022329,17.2408293 16.8022329,26.953748 C16.8022329,31.0526316 20.5183413,26.738437 23.4210526,24.3700159 C27.5598086,20.9808612 32.8947368,21.3397129 33.8357257,27.7192982 L33.9792663,27.7192982 L33.9792663,20.8452951 L33.9872408,20.8452951 Z" id="Path" fill="url(#linearGradient-1)"></path>
                        <path d="M33.9872408,9.05901116 C33.9872408,0.661881978 27.9824561,-0.151515152 23.4210526,3.58054226 C20.5263158,5.9569378 16.8022329,10.2631579 16.8022329,6.16427432 C16.8022329,-3.54864434 7.09728868,0.749601276 0.677830941,9.06698565 L0.677830941,17.6076555 C7.23285486,9.77671451 16.8022329,5.46251994 16.8022329,15.1674641 C16.8022329,19.2663477 20.5183413,14.9521531 23.4210526,12.5837321 C27.5598086,9.19457735 32.8947368,9.56140351 33.8357257,15.9330144 L33.9792663,15.9330144 L33.9792663,9.05901116 L33.9872408,9.05901116 Z" id="Path" fill="url(#linearGradient-2)"></path>
                    </g>
                </g>
            </g>
        </g>
    </g>
</svg>